<svg width="52" height="59" viewBox="0 0 52 59" fill="none" xmlns="http://www.w3.org/2000/svg">
<path d="M25.7884 5C14.5186 5 5.30603 14.2126 5.30603 25.4824C5.30603 34.7844 11.7459 43.0131 20.6902 45.3387L24.8045 52.4419C24.9834 52.8891 25.3412 53.1574 25.8778 53.1574C26.325 53.1574 26.7723 52.8891 26.9511 52.4419L30.7972 45.4281C39.8309 43.192 46.3602 34.9633 46.3602 25.5718C46.2707 14.2126 37.1476 5 25.7884 5ZM37.9526 26.019L34.2854 23.6041V34.695H17.3808V23.6041L13.7136 26.019L12.0142 23.5146L24.9834 15.107C25.2517 14.9281 25.5424 14.8387 25.8219 14.8387C26.1014 14.8387 26.3698 14.9281 26.5934 15.107L39.5625 23.5146L37.9526 26.019ZM25.7884 0C29.2385 0 32.5851 0.677628 35.7351 2.01408C38.7719 3.30244 41.4992 5.14683 43.8413 7.49599C46.176 9.83779 48.0152 12.5679 49.3075 15.6105C50.6424 18.7531 51.3329 22.0913 51.36 25.5324L51.3602 25.5521V25.5718C51.3602 28.445 50.8729 31.2776 49.912 33.9911C48.9809 36.6201 47.6298 39.0706 45.8962 41.2745C44.1676 43.472 42.1095 45.3599 39.779 46.8859C38.0273 48.0329 36.1565 48.9521 34.1947 49.6312L31.4241 54.684C30.9371 55.6956 30.1855 56.5478 29.2313 57.1652C28.2281 57.8143 27.0685 58.1574 25.8778 58.1574C24.6039 58.1574 23.3924 57.7875 22.3744 57.0876C21.517 56.4981 20.8283 55.6956 20.3619 54.7477L17.344 49.5374C15.3715 48.8378 13.4921 47.8944 11.7352 46.7205C9.4336 45.1826 7.40168 43.2898 5.69588 41.0947C3.98573 38.8939 2.65302 36.453 1.73476 33.8398C0.786736 31.1418 0.30603 28.3299 0.30603 25.4824C0.30603 22.0531 0.983414 18.7192 2.31937 15.5732C3.60625 12.5428 5.44532 9.81968 7.78551 7.47948C10.1257 5.1393 12.8488 3.30022 15.8792 2.01333C19.0252 0.677383 22.3591 0 25.7884 0ZM29.2854 22.811L25.7884 20.5439L22.3808 22.753V23.6041V29.695H29.2854V23.6041V22.811Z" fill="white"/>
</svg>
