<svg width="258" height="101" viewBox="0 0 258 101" fill="none" xmlns="http://www.w3.org/2000/svg">
<path d="M49.7884 5C38.5186 5 29.306 14.2126 29.306 25.4824C29.306 34.7844 35.7459 43.0131 44.6902 45.3387L48.8045 52.4419C48.9834 52.8891 49.3412 53.1574 49.8778 53.1574C50.325 53.1574 50.7723 52.8891 50.9511 52.4419L54.7972 45.4281C63.8309 43.192 70.3602 34.9633 70.3602 25.5718C70.2707 14.2126 61.1476 5 49.7884 5ZM61.9526 26.019L58.2854 23.6041V34.695H41.3808V23.6041L37.7136 26.019L36.0142 23.5146L48.9834 15.107C49.2517 14.9281 49.5424 14.8387 49.8219 14.8387C50.1014 14.8387 50.3698 14.9281 50.5934 15.107L63.5625 23.5146L61.9526 26.019ZM49.7884 0C53.2385 0 56.5851 0.677628 59.7351 2.01408C62.7719 3.30244 65.4992 5.14683 67.8413 7.49599C70.176 9.83779 72.0152 12.5679 73.3075 15.6105C74.6424 18.7531 75.3329 22.0913 75.36 25.5324L75.3602 25.5521V25.5718C75.3602 28.445 74.8729 31.2776 73.912 33.9911C72.9809 36.6201 71.6298 39.0706 69.8962 41.2745C68.1676 43.472 66.1095 45.3599 63.779 46.8859C62.0273 48.0329 60.1565 48.9521 58.1947 49.6312L55.4241 54.684C54.9371 55.6956 54.1855 56.5478 53.2313 57.1652C52.2281 57.8143 51.0685 58.1574 49.8778 58.1574C48.6039 58.1574 47.3924 57.7875 46.3744 57.0876C45.517 56.4981 44.8283 55.6956 44.3619 54.7477L41.344 49.5374C39.3715 48.8378 37.4921 47.8944 35.7352 46.7205C33.4336 45.1826 31.4017 43.2898 29.6959 41.0947C27.9857 38.8939 26.653 36.453 25.7348 33.8398C24.7867 31.1418 24.306 28.3299 24.306 25.4824C24.306 22.0531 24.9834 18.7192 26.3194 15.5732C27.6062 12.5428 29.4453 9.81968 31.7855 7.47948C34.1257 5.1393 36.8488 3.30022 39.8792 2.01333C43.0252 0.677383 46.3591 0 49.7884 0ZM53.2854 22.811L49.7884 20.5439L46.3808 22.753V23.6041V29.695H53.2854V23.6041V22.811Z" fill="#FF0D4A"/>
<path d="M20.691 100.061L11.97 84.842H9.747V100.061H0V59.761H16.644C19.4338 59.6759 22.205 60.2418 24.738 61.414C26.8082 62.393 28.536 63.9721 29.697 65.946C30.8222 67.9552 31.3927 70.2276 31.35 72.53C31.4264 75.2238 30.5705 77.8613 28.927 79.997C27.1283 82.1622 24.6455 83.6499 21.888 84.215L31.464 100.061H20.691ZM9.747 78.173H15.789C17.3249 78.3024 18.8528 77.8443 20.064 76.891C20.5452 76.3904 20.9156 75.7941 21.1513 75.141C21.387 74.4879 21.4826 73.7925 21.432 73.1C21.4697 72.4104 21.3648 71.7204 21.124 71.0731C20.8831 70.4258 20.5114 69.8352 20.032 69.338C18.8529 68.3392 17.3265 67.8474 15.786 67.97H9.744L9.747 78.173ZM66.462 83.303C66.4532 84.1842 66.3577 85.0624 66.177 85.925H44.118C44.232 88.319 44.84 90.0383 45.942 91.083C47.0846 92.144 48.6018 92.708 50.16 92.651C51.4443 92.7003 52.7082 92.3192 53.751 91.568C54.6787 90.8792 55.3425 89.8935 55.632 88.775H65.949C65.55 90.9756 64.6098 93.0423 63.213 94.789C61.779 96.5779 59.9433 98.0035 57.855 98.95C55.5825 99.9798 53.1108 100.496 50.616 100.461C47.7296 100.516 44.8762 99.8395 42.322 98.494C39.9207 97.1945 37.9501 95.2235 36.651 92.822C35.2362 90.1585 34.5296 87.1761 34.599 84.161C34.5213 81.1359 35.218 78.1411 36.623 75.461C37.9182 73.0636 39.891 71.1009 42.295 69.818C44.8607 68.4782 47.7221 67.8053 50.616 67.861C53.5086 67.799 56.3704 68.4655 58.938 69.799C61.2776 71.0379 63.2079 72.9285 64.495 75.242C65.8394 77.7127 66.5173 80.4908 66.462 83.303V83.303ZM56.601 81.821C56.6841 80.9621 56.5765 80.0955 56.286 79.283C55.9954 78.4706 55.5289 77.7323 54.92 77.121C53.7395 76.0685 52.2009 75.5078 50.62 75.554C48.9879 75.4989 47.3968 76.0715 46.174 77.154C44.9194 78.3884 44.2025 80.068 44.179 81.828L56.601 81.821ZM83.106 67.861C87.134 67.861 90.3543 68.868 92.767 70.882C95.1886 72.91 96.7977 75.7433 97.299 78.862H88.181C87.9685 77.6618 87.3292 76.5789 86.381 75.813C85.3787 75.047 84.1418 74.6523 82.881 74.696C81.9875 74.6329 81.1001 74.8848 80.373 75.408C80.085 75.6573 79.8581 75.9695 79.7099 76.3204C79.5616 76.6714 79.496 77.0517 79.518 77.432C79.5197 77.918 79.6705 78.3917 79.95 78.7892C80.2295 79.1868 80.6243 79.489 81.081 79.655C82.6693 80.3174 84.3217 80.814 86.012 81.137C88.0419 81.589 90.041 82.1698 91.997 82.876C93.5692 83.4749 94.9622 84.4655 96.044 85.754C97.2474 87.2722 97.8554 89.1773 97.754 91.112C97.7838 92.844 97.2655 94.5412 96.273 95.961C95.1868 97.4413 93.7051 98.5851 91.998 99.261C89.8981 100.105 87.6485 100.513 85.386 100.461C81.092 100.461 77.653 99.511 75.069 97.611C73.7723 96.641 72.6848 95.4192 71.8719 94.0187C71.0589 92.6183 70.5372 91.068 70.338 89.461H79.738C79.7816 90.0789 79.9603 90.6798 80.2614 91.2211C80.5626 91.7625 80.9789 92.2311 81.481 92.594C82.6339 93.358 83.9992 93.7371 85.381 93.677C86.2837 93.7415 87.178 93.4669 87.889 92.907C88.1711 92.6528 88.3938 92.3398 88.5416 91.9901C88.6893 91.6403 88.7584 91.2624 88.744 90.883C88.7633 90.3749 88.6229 89.8735 88.3425 89.4493C88.0622 89.0251 87.656 88.6994 87.181 88.518C85.5312 87.8582 83.8239 87.3524 82.081 87.007C80.1062 86.6178 78.1629 86.083 76.267 85.407C74.7428 84.8341 73.3894 83.883 72.334 82.643C71.1642 81.1666 70.5761 79.3127 70.681 77.432C70.6445 76.1041 70.9193 74.786 71.4835 73.5834C72.0476 72.3807 72.8855 71.3268 73.93 70.506C76.0973 68.7426 79.156 67.861 83.106 67.861ZM121.181 91.682V100.061H116.792C113.068 100.061 110.17 99.1393 108.099 97.296C106.028 95.4526 104.992 92.4033 104.993 88.148V76.461H100.718V68.253H104.993V60.444H114.74V68.253H121.124V76.461H114.74V88.317C114.69 88.7836 114.732 89.2554 114.865 89.7057C114.997 90.1559 115.216 90.5757 115.511 90.941C116.251 91.5075 117.178 91.7724 118.105 91.682H121.181ZM141.532 67.861C144.472 67.8106 147.379 68.4859 149.996 69.827C152.459 71.1125 154.497 73.0822 155.867 75.499C157.337 78.145 158.075 81.135 158.005 84.161C158.075 87.1877 157.337 90.1783 155.867 92.825C154.497 95.2418 152.459 97.2114 149.996 98.497C147.379 99.8374 144.472 100.512 141.532 100.461C138.583 100.509 135.667 99.8328 133.039 98.493C130.564 97.2141 128.514 95.2435 127.139 92.821C125.67 90.1754 124.932 87.1862 125.002 84.161C124.931 81.1334 125.669 78.1416 127.139 75.494C128.514 73.0715 130.564 71.1009 133.039 69.822C135.667 68.4845 138.583 67.8113 141.532 67.861V67.861ZM141.532 76.297C140.65 76.2811 139.774 76.4534 138.964 76.8024C138.153 77.1514 137.427 77.6691 136.832 78.321C135.462 79.9462 134.776 82.0401 134.92 84.161C134.771 86.2743 135.457 88.3617 136.83 89.975C137.429 90.6195 138.157 91.1303 138.967 91.4741C139.777 91.8178 140.65 91.9868 141.53 91.97C142.406 91.9889 143.276 91.8207 144.082 91.4767C144.888 91.1327 145.612 90.6207 146.204 89.975C147.56 88.3536 148.235 86.2696 148.087 84.161C148.232 82.0445 147.559 79.9533 146.206 78.319C145.618 77.6653 144.896 77.146 144.09 76.7962C143.283 76.4464 142.411 76.2744 141.532 76.292V76.297ZM183.256 67.918C184.884 67.844 186.508 68.1324 188.012 68.7624C189.515 69.3924 190.859 70.3483 191.948 71.561C194.095 73.993 195.168 77.337 195.168 81.593V100.061H185.422V82.733C185.531 80.9151 184.928 79.1262 183.741 77.745C183.166 77.1437 182.47 76.672 181.698 76.3616C180.927 76.0512 180.098 75.9091 179.267 75.945C178.395 75.9032 177.523 76.0495 176.712 76.3741C175.901 76.6986 175.17 77.1938 174.567 77.826C173.323 79.3237 172.701 81.2413 172.828 83.184V100.061H163.081V68.255H172.828V74.069C173.713 72.2001 175.132 70.6345 176.904 69.569C178.825 68.4351 181.026 67.8615 183.256 67.913V67.918ZM231.82 83.308C231.811 84.1892 231.716 85.0674 231.535 85.93H209.476C209.59 88.324 210.198 90.0433 211.3 91.088C212.443 92.1469 213.96 92.709 215.517 92.651C216.801 92.7003 218.065 92.3192 219.108 91.568C220.036 90.8792 220.699 89.8935 220.989 88.775H231.306C230.907 90.9756 229.967 93.0423 228.57 94.789C227.136 96.5779 225.3 98.0035 223.212 98.95C220.94 99.9797 218.468 100.496 215.974 100.461C213.088 100.516 210.235 99.8387 207.681 98.493C205.279 97.1936 203.308 95.2226 202.009 92.821C200.594 90.1578 199.888 87.1758 199.957 84.161C199.879 81.1359 200.576 78.1411 201.981 75.461C203.276 73.0636 205.249 71.1009 207.653 69.818C210.219 68.4782 213.08 67.8053 215.974 67.861C218.867 67.799 221.728 68.4655 224.296 69.799C226.636 71.0377 228.567 72.9284 229.854 75.242C231.198 77.7128 231.876 80.4909 231.82 83.303V83.308ZM221.959 81.821C222.042 80.9621 221.935 80.0955 221.644 79.283C221.353 78.4706 220.887 77.7323 220.278 77.121C219.097 76.0685 217.559 75.5078 215.978 75.554C214.346 75.4989 212.755 76.0715 211.532 77.154C210.277 78.3884 209.56 80.068 209.537 81.828L221.959 81.821ZM246.64 74.24C247.812 72.3449 249.424 70.7609 251.34 69.623C253.225 68.4921 255.384 67.9006 257.582 67.913V78.344H254.791C252.658 78.2128 250.543 78.7943 248.777 79.997C247.352 81.099 246.64 82.961 246.64 85.583V100.061H236.893V68.255H246.64V74.24Z" fill="#FF0D4A"/>
</svg>
